<svg xmlns="http://www.w3.org/2000/svg" xmlns:xlink="http://www.w3.org/1999/xlink" viewBox="0 0 549 299" width="50px"><defs><style>.cls-1{fill:none;}.cls-2{clip-path:url(#clip-path);}.cls-3{fill:url(#Spectrum_);}</style><clipPath id="clip-path" transform="translate(-155 -272)"><path class="cls-1" d="M181.05,558h-10V283.81h10Zm115.35-.09-1.84-107.7a5,5,0,0,0-5-4.91H227.81v10h56.84l1.76,102.79Zm-1.84-170H237.81V283.81h-10V392.86a5,5,0,0,0,5,5h61.76ZM465.08,548H351.32V283.81h-10V553a5,5,0,0,0,5,5H465.08Zm3.59-155.14V319.22a5,5,0,0,0-5-5H393.08a5,5,0,0,0-5,5v78.65h10V324.22h60.59v63.65H429v10h34.67A5,5,0,0,0,468.67,392.86ZM477.2,505.2a5,5,0,0,0,1.46-3.54V436.11a5,5,0,0,0-5-5H393.08a5,5,0,0,0-5,5v70.56h10V441.11h70.59v55.56l-40.29,0v10l45.29,0h0A5,5,0,0,0,477.2,505.2Zm45.85-58.9c0-18.82-5.31-28.93-9.17-33.79,3.67-5.47,9.17-16.8,9.17-35.51v-5h-10v5c0,22.8-9.19,32.19-9.25,32.25l-4.91,4.35,5.49,3.38c.67.56,8.68,7.64,8.67,29.32v5h10Zm0-162.49h-10V558h10Zm170,0h-10V410h10Zm-115,45.13h-10V512.87h10Zm55,0h-10V410h10Zm60,117.35a5,5,0,0,0-5-5H611.33v10h71.72V557.58h10Zm-35.86,44a5,5,0,0,0-5-5H611.33v10h35.86v17.53h10Z"/></clipPath><linearGradient id="Spectrum_" y1="149.5" x2="549" y2="149.5" gradientUnits="userSpaceOnUse"><stop offset="0" stop-color="#00a8de"/><stop offset="0.2" stop-color="#333391"/><stop offset="0.4" stop-color="#e91388"/><stop offset="0.6" stop-color="#eb2d2e"/><stop offset="0.8" stop-color="#fde92b"/><stop offset="1" stop-color="#009e54"/></linearGradient></defs><title>logomulticolour</title><g id="Layer_2_copy" data-name="Layer 2 copy"><g class="cls-2"><rect class="cls-3" width="549" height="299"/></g></g></svg>
