<svg id="Layer_2_copy" data-name="Layer 2 copy" xmlns="http://www.w3.org/2000/svg" viewBox="0 0 528 280.32" width="60px"><defs><style>.cls-1,.cls-2{fill:none;stroke:#000;stroke-linecap:square;stroke-width:16px;}.cls-1{stroke-linejoin:round;}.cls-2{stroke-miterlimit:10;}</style></defs><title>logoblack</title><line class="cls-1" x1="8" y1="272.19" x2="8" y2="8"/><polyline class="cls-1" points="64.76 169.49 121.51 169.49 123.27 272.19"/><polyline class="cls-1" points="121.51 112.05 64.76 112.05 64.76 8"/><polyline class="cls-1" points="178.27 8 178.27 272.19 292.03 272.19"/><polyline class="cls-1" points="225.03 112.05 225.03 38.41 295.61 38.41 295.61 112.05 265.95 112.05"/><polyline class="cls-1" points="225.03 220.86 225.03 155.3 305.61 155.3 305.61 220.86 265.32 220.84"/><path class="cls-2" d="M595.05,397.3c0-26-10.8-33.42-10.8-33.42s10.8-10.25,10.8-35.87" transform="translate(-245.05 -231.81)"/><line class="cls-1" x1="350" y1="272.19" x2="350" y2="8"/><line class="cls-1" x1="520" y1="124.19" x2="520" y2="8"/><line class="cls-1" x1="405" y1="227.05" x2="405" y2="53.14"/><line class="cls-1" x1="460" y1="124.19" x2="460" y2="53.14"/><polyline class="cls-1" points="520 271.77 520 165.49 448.28 165.49"/><polyline class="cls-1" points="448.28 209.52 484.14 209.52 484.14 227.05"/></svg>
